<svg width="22" height="21" fill="none" xmlns="http://www.w3.org/2000/svg"><path d="M9.23 20.032c-4.772-.427-8.37-2.564-8.37-4.97 0-.563.194-1.12.577-1.654a.455.455 0 00-.089-.622.42.42 0 00-.6.091C.25 13.57 0 14.303 0 15.061c0 1.467.968 2.867 2.727 3.941 1.658 1.013 3.94 1.694 6.429 1.917a.436.436 0 00.465-.405.44.44 0 00-.391-.482zm1.877.078h-.025a.438.438 0 00-.428.447.437.437 0 00.43.443h.023c.238 0 .43-.2.43-.445a.438.438 0 00-.43-.445zm10.32-6.971a.438.438 0 00.415-.444.438.438 0 00-.43-.445h-.865a.438.438 0 00-.43.445v.896c0 .246.193.445.43.445a.421.421 0 00.31-.138 2.6 2.6 0 01.284 1.164c0 2.406-3.6 4.543-8.373 4.97a.44.44 0 00-.391.482.436.436 0 00.465.405c2.489-.223 4.772-.903 6.43-1.916C21.033 17.928 22 16.529 22 15.062c0-.662-.193-1.308-.573-1.923zM11 3.627c-.237 0-.43.2-.43.445v.971c0 .246.193.445.43.445.238 0 .43-.2.43-.445v-.971a.438.438 0 00-.43-.445z" fill="#9FC460"/><path d="M18.395 4.352L11.215.06a.417.417 0 00-.43 0l-7.18 4.292a.448.448 0 00-.215.386v8.585c0 .159.082.306.215.385l7.18 4.293a.417.417 0 00.43 0l7.18-4.293a.448.448 0 00.214-.385V4.738a.448.448 0 00-.215-.386zM10.57 16.845l-5.89-3.522.406-.243a.454.454 0 00.157-.608.422.422 0 00-.587-.163l-.406.243V5.51l5.887 3.523-.738.442a.454.454 0 00-.157.607c.08.143.224.223.372.223.073 0 .147-.02.215-.06l.741-.443v7.044zM11 6.948c-.237 0-.43.2-.43.445v.87L4.68 4.739l5.89-3.522v.506c0 .246.193.445.43.445s.43-.2.43-.445v-.506l5.89 3.522-5.89 3.526v-.87a.438.438 0 00-.43-.446zm6.75 5.604l-.407-.243a.422.422 0 00-.586.163.454.454 0 00.157.608l.406.243-5.89 3.522V9.8l.741.443c.068.04.142.06.215.06.148 0 .292-.08.372-.223a.454.454 0 00-.157-.607l-.738-.442L17.75 5.51v7.043z" fill="#9FC460"/><path d="M15.38 11.134l-.813-.486a.422.422 0 00-.587.163.454.454 0 00.157.608l.812.486c.068.04.142.06.215.06.148 0 .293-.08.372-.223a.454.454 0 00-.157-.608zm-7.36-.323a.422.422 0 00-.586-.162l-.813.485a.454.454 0 00-.157.608.418.418 0 00.587.163l.812-.486a.454.454 0 00.158-.608z" fill="#9FC460"/></svg>