<svg width="76" height="92" fill="none" xmlns="http://www.w3.org/2000/svg"><path d="M48.676 4.681a4.119 4.119 0 012.37.9 3.57 3.57 0 01-4.737 0 4.119 4.119 0 012.367-.9zm5.794 3.913s.293-1.206-.277-2.088c-.57-.882-1.788-1.112-1.788-1.112s-.293 1.205.277 2.088c.569.882 1.788 1.112 1.788 1.112zm-6.583-1.119a2.583 2.583 0 00-1.022 1.455 2.134 2.134 0 002.797-1.631 2.597 2.597 0 00-1.775.173v.003zm-10.385-.643c1.152.46 2.45-.073 2.45-.073s-.575-1.282-1.727-1.741c-1.153-.46-2.451.073-2.451.073s.576 1.282 1.728 1.741zm-5.87.71a3.053 3.053 0 00-.47-1.945 2.587 2.587 0 00-.592 3.646 3.063 3.063 0 001.062-1.698v-.003zm-2.664-.703s.73-1.059.536-2.178c-.193-1.118-1.228-1.867-1.228-1.867s-.73 1.058-.536 2.177c.193 1.119 1.228 1.868 1.228 1.868zm-.456 3.862a2.936 2.936 0 00-1.375-3.865 2.937 2.937 0 001.375 3.865zm3.563 2.401a2.332 2.332 0 00-2.331-2.51 2.33 2.33 0 002.33 2.51zM26.01 8.634a2.33 2.33 0 00-2.33-2.51 2.332 2.332 0 002.33 2.51zm-.882 2.477c.999.316 2.068-.253 2.068-.253s-.553-1.079-1.555-1.392c-1.002-.313-2.068.253-2.068.253s.553 1.079 1.555 1.392zm4.102 6.56a2.804 2.804 0 00-.61-4.033 2.8 2.8 0 00.61 4.032zm1.518 1.331c-.08.63.045 1.27.357 1.825a2.547 2.547 0 00.62-3.406c-.487.409-.83.963-.976 1.581zm1.02 2.764a2.997 2.997 0 000 1.958 2.538 2.538 0 001.381-3.33 2.997 2.997 0 00-1.392 1.382l.01-.01zm12.452 6.832c-.1 1.199.803 2.254.803 2.254s1.062-.892 1.162-2.094c.1-1.202-.803-2.254-.803-2.254s-1.062.892-1.165 2.094h.003zm8.32-5.947a3.293 3.293 0 00-.665-2.044 2.796 2.796 0 00-.333 3.956c.537-.508.889-1.18.999-1.912zm-.502-6.965a3.293 3.293 0 00-2.018-.736 2.796 2.796 0 002.917 2.69 3.307 3.307 0 00-.899-1.954zm-2.79-.153a3.297 3.297 0 00-.71-2.028 2.794 2.794 0 00-.233 3.962 3.306 3.306 0 00.943-1.934zm8.703.48a3.56 3.56 0 00-3.41 3.032 3.56 3.56 0 003.41-3.033zm-3.18 4.887c-.332.72.047 1.605.047 1.605s.926-.28 1.262-.999c.336-.72-.047-1.605-.047-1.605s-.925.28-1.261.999zm6.603-7.948a3.33 3.33 0 00-.103-2.034 2.887 2.887 0 00-1.169 3.632 3.33 3.33 0 001.272-1.595v-.003zm2.594-.746a2.38 2.38 0 00.623-1.628s-1.076-.053-1.725.546a2.378 2.378 0 00-.62 1.628s1.076.054 1.722-.546zm-.74 4.02a2.388 2.388 0 00.377 1.7s.926-.549 1.135-1.408a2.394 2.394 0 00-.376-1.705s-.925.55-1.135 1.409v.003zm3.48 6.519s.197 1.055.932 1.548a2.387 2.387 0 001.728.23s-.196-1.06-.932-1.549a2.387 2.387 0 00-1.728-.23zm3.133 4.808c.943.12 1.785-.686 1.785-.686s-.69-1-1.631-1.116c-.943-.116-1.785.686-1.785.686s.69 1 1.631 1.116zm2.111 1.415a2.3 2.3 0 00-1.618-.416s.073 1.025.72 1.575a2.298 2.298 0 001.617.416s-.073-1.026-.719-1.575zM58.32 27.879a3.762 3.762 0 00-2.275-.306 3.36 3.36 0 00-1.797 1.288 3.76 3.76 0 002.274.306 3.36 3.36 0 001.798-1.288zm-1.086 8.414c1.252.156 2.33-.706 2.33-.706s-.938-1.119-2.19-1.275c-1.252-.157-2.33.706-2.33.706s.938 1.118 2.19 1.275zm1.535-5.454a3.097 3.097 0 001.665-1.192 3.476 3.476 0 00-2.098-.283 3.103 3.103 0 00-1.665 1.192 3.47 3.47 0 002.098.283zm2.191 1.901a2.873 2.873 0 001.855-.57 3.21 3.21 0 00-1.775-.948 2.87 2.87 0 00-1.855.57 3.206 3.206 0 001.772.945l.003.003zm7.512 1.439c-.596.39-1.032.98-1.23 1.664 0 0 1.21.293 2.142-.233a2.974 2.974 0 001.232-1.664s-1.209-.293-2.141.233h-.003zm-4.825 2.5c-1.199.35-1.845 1.578-1.845 1.578s1.299.666 2.498.31c1.198-.356 1.844-1.578 1.844-1.578s-1.298-.666-2.497-.31zm4.555 2.204a3.266 3.266 0 001.698-1.371 3.662 3.662 0 00-2.254-.217 3.266 3.266 0 00-1.698 1.372c.71.308 1.498.384 2.254.216zm1.964.77a2.474 2.474 0 00-1.734.446s.609.912 1.501 1.092a2.474 2.474 0 001.732-.446s-.61-.913-1.502-1.092h.003zm-.822 3.253c.027.575.254 1.123.643 1.548.444.341 1 .503 1.558.453a2.464 2.464 0 00-.643-1.549c-.444-.34-1-.502-1.558-.452zm-2.71 1.245c-.407.866.053 1.898.053 1.898s1.119-.37 1.528-1.236c.41-.865-.053-1.897-.053-1.897s-1.119.37-1.528 1.235zm-9.893-3.952s-1.391.206-2.144 1.158c-.752.953-.582 2.288-.582 2.288s1.391-.207 2.144-1.159c.752-.952.58-2.287.58-2.287h.002zm7.955 2.537c-.5.201-.912.576-1.159 1.055a2.49 2.49 0 001.615.153c.5-.2.912-.576 1.159-1.055a2.49 2.49 0 00-1.615-.153zm-13.582.12a2.473 2.473 0 001.539-.49c.384-.38.62-.886.666-1.425a2.47 2.47 0 00-1.539.49 2.267 2.267 0 00-.666 1.428v-.003zm11.904-8.58a2.707 2.707 0 00-1.435-.727 2.414 2.414 0 00-1.499.403c.394.382.895.635 1.435.726a2.414 2.414 0 001.499-.403zm-3.95-12.5a3.266 3.266 0 001.612-1.259c.305-.606.39-1.3.24-1.961a3.27 3.27 0 00-1.611 1.259 2.923 2.923 0 00-.237 1.96h-.003zm3.157 3.819a2.6 2.6 0 001.515-1.042 2.903 2.903 0 00-1.848-.46 2.603 2.603 0 00-1.515 1.042 2.9 2.9 0 001.848.46zm-3.885-2.587a3.702 3.702 0 00-1.352 1.97A4.155 4.155 0 0059.4 24.4a3.7 3.7 0 001.348-1.97 4.16 4.16 0 00-2.41.579zm4.684-8.714s-1.362.037-2.244.856a3.433 3.433 0 00-.949 2.11s1.365-.036 2.244-.855a3.429 3.429 0 00.95-2.11zm-38.543 9.44c-.048.669.13 1.335.506 1.89a2.538 2.538 0 00.49-3.582 2.996 2.996 0 00-1 1.692h.004zm-7.355-7.479a2.54 2.54 0 00-1.132-3.436 2.542 2.542 0 001.132 3.436zm-3.996 7.698s0-1.398-.839-2.33a3.756 3.756 0 00-2.23-1.04s0 1.402.838 2.332a3.756 3.756 0 002.231 1.038zm-1.605.776c.118.564.42 1.072.86 1.445.48.313 1.05.454 1.621.4a2.593 2.593 0 00-.86-1.445 2.537 2.537 0 00-1.62-.4zm.896 9.13a2.584 2.584 0 00-1.531-.693 2.53 2.53 0 00-1.555.603c.419.395.958.639 1.531.693a2.527 2.527 0 001.555-.603zm8.101-8.22a2.438 2.438 0 00-1.688.239 2.49 2.49 0 001.275 1.152 2.444 2.444 0 001.692-.24 2.49 2.49 0 00-1.279-1.152zm-2.864-1.719a2.487 2.487 0 00-1.568.696 2.437 2.437 0 00-.466 1.641 2.49 2.49 0 001.572-.696 2.437 2.437 0 00.466-1.641h-.004zm.563 6.146a2.441 2.441 0 00-.792 1.509 2.5 2.5 0 001.665-.36 2.44 2.44 0 00.792-1.508 2.5 2.5 0 00-1.665.36zm11.987 4.832s-.06-1.119-.776-1.735c-.716-.616-1.818-.506-1.818-.506s.057 1.119.776 1.738c.719.62 1.818.503 1.818.503zM10.965 29.36s-.792-1.186-1.998-1.422c-1.205-.236-2.364.566-2.364.566s.793 1.185 1.998 1.422c1.205.236 2.367-.566 2.367-.566h-.003zm15.456 18.646a3.33 3.33 0 00-.573-2.091 3.246 3.246 0 00-1.824-1.07 3.33 3.33 0 00.55 2.059c.471.55 1.113.926 1.824 1.068l.023.034zm-12.186-2.325c-.078.72.087 1.446.47 2.062a3.33 3.33 0 001.125-1.812 3.246 3.246 0 00-.47-2.06 3.33 3.33 0 00-1.125 1.81zm-2.371 1.932a2.7 2.7 0 00.193 1.764 2.76 2.76 0 001.129-1.388 2.698 2.698 0 00-.193-1.765c-.52.325-.917.813-1.129 1.389zm-1.698-2.138c-.582.18-1.086.55-1.432 1.052a2.76 2.76 0 001.765.28 2.717 2.717 0 001.432-1.052 2.756 2.756 0 00-1.765-.28zm-1.691 4.362a2.753 2.753 0 001.664-.646 2.71 2.71 0 00.71-1.628 2.753 2.753 0 00-1.665.646 2.71 2.71 0 00-.71 1.628zm14.873-1.042c.206-.523.23-1.1.066-1.639a2.44 2.44 0 00-1.135-1.171c-.206.522-.23 1.1-.067 1.638.233.509.634.923 1.136 1.172zm-6.39.333a2.474 2.474 0 00.167 1.631 2.08 2.08 0 00.905-2.877 2.483 2.483 0 00-1.068 1.246h-.004zm-3.606-14.5a3.33 3.33 0 00-1.92.842 3.263 3.263 0 00-.81 1.92 3.33 3.33 0 001.921-.842c.473-.534.757-1.21.81-1.92zm-.156-6.9a3.393 3.393 0 00-2.164-.536c.156.752.56 1.43 1.145 1.928.64.417 1.403.606 2.164.536a3.463 3.463 0 00-1.145-1.928zm2.377 4.995s-.726-1.412-2.068-1.902c-1.341-.49-2.786.137-2.786.137s.729 1.415 2.067 1.901c1.339.486 2.787-.136 2.787-.136zm16.851-8.301c-.745.999-.586 2.364-.586 2.364s1.369-.22 2.115-1.206c.745-.985.586-2.363.586-2.363s-1.369.22-2.115 1.205zM43.48 29.53a4.622 4.622 0 00-2.331-1.566 4.012 4.012 0 003.076 4.276 4.608 4.608 0 00-.739-2.714l-.006.003zm-15.52-6.89s-1.102.843-1.288 2.065c-.187 1.222.61 2.357.61 2.357s1.098-.842 1.288-2.064c.19-1.222-.61-2.358-.61-2.358zM40.076 7.728a3.28 3.28 0 00-.906 1.968 2.76 2.76 0 002.957-2.664 3.287 3.287 0 00-2.051.71v-.014zm.712 4.342a3.23 3.23 0 00.427-2.108 2.717 2.717 0 00-2.255 3.243 3.24 3.24 0 001.828-1.135zm2.794.453a3.24 3.24 0 00-.72-2.031 2.715 2.715 0 00-.266 3.942 3.23 3.23 0 001-1.915l-.014.004zm-6.503 7.009a2.49 2.49 0 00.999 3.376 2.49 2.49 0 00-.999-3.376zm2.39-3.427a3.95 3.95 0 001.905-1.448 3.949 3.949 0 00-2.387-.14 3.547 3.547 0 00-1.402.866c.235-.453.378-.947.42-1.455a4.275 4.275 0 00-.573-2.288 4.26 4.26 0 00-.876 2.188c-.024.44.029.883.157 1.305a3.285 3.285 0 00-.982-.666 3.949 3.949 0 00-2.391-.123 3.95 3.95 0 001.731 1.665c.41.168.85.254 1.292.253a2.684 2.684 0 00-.905.952 3.223 3.223 0 00-.173 2.138 3.25 3.25 0 001.664-1.332c.102-.197.175-.408.217-.626.086.306.24.59.45.829.725.796 2.04.783 2.04.783s.14-1.31-.586-2.105a2.706 2.706 0 00-1.635-.749v-.023a3.727 3.727 0 002.018.02l.017-.044zM22.853 44.617a3.38 3.38 0 00-1.931-.666c-.28.008-.558.06-.823.153.233-.263.415-.567.54-.895a3.586 3.586 0 00-.047-2.221 3.566 3.566 0 00-1.452 1.665 3.027 3.027 0 00-.146 1.258 2.137 2.137 0 00-.693-.736c-.822-.51-1.928-.223-1.928-.223s.23 1.116 1.052 1.628c.223.133.47.221.726.26a1.964 1.964 0 00-.749.466c-.646.666-.58 1.778-.58 1.778s1.116.02 1.762-.666c.147-.157.265-.338.35-.536.011.267.076.528.19.77.432.875 1.541 1.211 1.541 1.211s.403-1.082-.033-1.957a2.102 2.102 0 00-.623-.72c.302.108.62.162.94.16a3.376 3.376 0 001.904-.729zm2.733-15.316s-1.255-.04-2.027.712a2.33 2.33 0 00-.517.793 2.33 2.33 0 00-.332-.953c-.58-.925-1.845-1.182-1.845-1.182s-.333 1.246.26 2.175c.159.246.365.458.606.626a2.222 2.222 0 00-1 .1c-.998.36-1.47 1.515-1.47 1.515s1.118.572 2.107.213c.227-.086.438-.211.622-.37a2.25 2.25 0 00-.186.872c0 1.102.959 1.998.959 1.998s.945-.895.942-1.998a2.364 2.364 0 00-.27-1.038 3.1 3.1 0 00.873.629c.728.3 1.532.368 2.3.193a3.816 3.816 0 00-1.621-1.645 2.996 2.996 0 00-.77-.233c.211-.099.404-.23.573-.39.776-.749.78-1.997.78-1.997l.016-.02zm29.617 3.036s-1.245-.186-2.068.47a2.06 2.06 0 00-.472.55c.026-.3-.008-.603-.1-.89-.353-1.042-1.542-1.585-1.542-1.585s-.613 1.152-.256 2.195c.124.34.324.648.586.898a3.126 3.126 0 00-1.026-.332 3.816 3.816 0 00-2.244.549 3.808 3.808 0 002.061 1.042c.289.03.58.02.866-.033-.16.188-.282.407-.356.642-.26.876.29 1.815.29 1.815s.971-.48 1.231-1.355c.037-.13.058-.262.063-.396.123.202.278.384.46.536.846.692 2.124.536 2.124.536s-.09-1.285-.935-1.978a2.167 2.167 0 00-.61-.333c.37-.06.72-.21 1.02-.436.822-.666.911-1.905.911-1.905l-.003.01zM64.31 18.88c-.08.194-.132.398-.154.606a1.794 1.794 0 00-.589-.6c-.796-.469-1.885-.1-1.885-.1s.197 1.136 1 1.606c.24.135.51.212.785.226a2.248 2.248 0 00-.932.413c-.826.666-.92 1.901-.92 1.901s1.246.19 2.069-.466c.174-.143.324-.314.442-.506-.043.258-.035.521.024.776.23.919 1.192 1.468 1.192 1.468s.586-.939.356-1.858a2.145 2.145 0 00-.51-.899c.325.129.671.19 1.02.183a3.279 3.279 0 001.924-.876 3.279 3.279 0 00-1.998-.725 2.362 2.362 0 00-.522.086c.136-.16.248-.337.332-.53.43-.998-.046-2.147-.046-2.147s-1.172.446-1.598 1.439l.01.003zM41.21 3.739c.096.02.193.03.29.033a1.876 1.876 0 00-.243.333 2.88 2.88 0 00-.2 1.932 2.907 2.907 0 001.562-1.162 2.2 2.2 0 00.256-.81c.097.238.24.455.423.636.666.666 1.785.596 1.785.596s0-1.108-.667-1.761a1.94 1.94 0 00-.665-.406 1.91 1.91 0 00.532-.11 2.607 2.607 0 001.242-1.202 2.604 2.604 0 00-1.724-.073c-.177.07-.341.165-.49.283.026-.117.039-.237.04-.357A2.664 2.664 0 0042.59.007a2.664 2.664 0 00-.77 1.664c.002.228.045.454.127.666a1.762 1.762 0 00-.403-.146c-.909-.197-1.814.423-1.814.423s.569.935 1.481 1.128V3.74zm21.696 38.314a3.52 3.52 0 00-2.134 0 2.95 2.95 0 00-.936.593 1.941 1.941 0 00-.143-.456c-.433-.9-1.532-1.269-1.532-1.269s-.4 1.089.033 1.998c.05.1.108.194.174.283a1.877 1.877 0 00-.333.056c-.976.267-1.542 1.316-1.542 1.316s1.016.62 1.998.353c.06-.02.12-.044.18-.07-.032.118-.05.24-.057.363-.047.972.762 1.798.762 1.798s.89-.75.94-1.722a1.658 1.658 0 000-.17c.036.027.066.057.106.08.872.536 2.041.223 2.041.223s-.243-1.178-1.115-1.714a1.905 1.905 0 00-.357-.17 2.54 2.54 0 00.333-.097c.668-.29 1.23-.78 1.608-1.401l-.026.006zM14.86 22.242c.036 0 .066-.023.103-.033a1.337 1.337 0 00-.03.203 2.22 2.22 0 00.616 1.451c.412-.356.68-.849.756-1.388a1.464 1.464 0 00-.027-.333c.08.061.166.115.256.16a2.38 2.38 0 001.665.02c-.177-.541-.543-1-1.032-1.292-.15-.07-.31-.116-.473-.137.089-.064.17-.138.243-.22a2.29 2.29 0 00.47-1.444 2.287 2.287 0 00-1.369.666c-.097.113-.177.24-.24.376a1.628 1.628 0 00-.14-.483 2.331 2.331 0 00-1.238-1.026 2.33 2.33 0 00.027 1.605c.095.191.225.363.383.506a1.491 1.491 0 00-.26.03 2.35 2.35 0 00-1.295 1 2.33 2.33 0 001.591.366l-.006-.027zm29.244-11.597a3.483 3.483 0 00-.823-4.725 3.486 3.486 0 00.823 4.725zm5.613-1.372A2.134 2.134 0 0052.9 8.68a2.135 2.135 0 00-3.183.593zm-2.33.882c-.57.377-.992.937-1.196 1.589a2.82 2.82 0 001.948-.157c.57-.376.991-.937 1.195-1.588a2.82 2.82 0 00-1.947.156zm1.734-6.825C50.47 2.424 50.913.72 50.913.72s-1.745-.237-3.097.665c-1.352.902-1.791 2.61-1.791 2.61s1.744.237 3.096-.665zm-32.93 24.023a2.138 2.138 0 00-.113 1.358c.43-.193.787-.518 1.02-.929a2.14 2.14 0 00.112-1.358 2.22 2.22 0 00-1.022.929h.003zm-6.106 7.755a2.578 2.578 0 00-1.548.31c-.435.306-.76.745-.926 1.251a2.577 2.577 0 001.548-.31c.436-.306.76-.745.926-1.251zM51.31 19.125c.133-.156 0-.236-.137-.223-.136.014-.796.047-.796.047v-.942c0-.36-.203-.227-.303-.09-.195.247-.418.47-.665.666a1.388 1.388 0 00-1.665.975c-.147.426-.243.786-.493.82-.25.033-.393-.45-.45-1.213-.056-.762-.482-1.515-.942-1.684-.46-.17-2.267-.563-2.604-.36-.336.203-.113 1.135.706 1.665-.875.246-.313 1.188.596 1.495-.629.333.034.999.64 1.212a4.857 4.857 0 00-1.036 1.481c-2.663-.37-3.017.36-3.053.55-.057.28.236.606.55.729-.334.333-.82.909-.573 1.292.246.383.998.113 1.331-.113a.838.838 0 00.403.999c.863.372 1.875-1.18 1.898-1.998.213.066 1.382.246 1.728.046-.426 1.136.18 1.562.46 1.369-.08 1.665.729 1.415.975 1.179 0 .303.034 1.528.64 1.505.606-.024 1.291-1.562 1.515-2.997.223-1.435.066-2.3-.616-2.944a3.719 3.719 0 001.315-2.863s.46-.416.596-.573l-.02-.03zM20.258 15.18c.203 1.302.54 2.12 1.225 2.797-.842.492-.762 1.538-.483 3.21.28 1.67 1.103 2.663 1.562 2.57.46-.093.563-.743.46-1.425.975.922 1.155-.483.932-1.212.999.113.572-.966.403-1.359.113.067 1.471.17 1.798.024.606 2.087 1.628 2.257 1.954 1.964.326-.293.223-.606.133-1.055.427.08.833-.044.956-.333.123-.29-.057-.506-.333-.72.227-.004.452-.046.666-.123.166-.056.573-.333.19-.885-.383-.553-2.627-.54-3.087-.53a12.704 12.704 0 00-.942-1.225 1.252 1.252 0 00.899-.54.583.583 0 00-.383-.666c.403-.133.999-.629.999-.998 0-.37-.36-.55-.54-.63.18-.09 1.246-.762.786-1.382-.46-.619-2.727.37-3.053.666-.326.297-.36.89-.36 1.369 0 .48-.1.909-.45.976-.349.066-.392-.237-.525-.686.333-.044.303-.393.18-.393-.124 0-.28-.08-.62-.333a1.547 1.547 0 00-1.448-.247 9.455 9.455 0 00-.44-.842c-.17-.256-.313 0-.313.19s.057.942.057.942l-.866-.123c-.236-.033-.223.133-.1.27.124.136.753.752.753.752l-.01-.023zm14.397 17.357c0 .24 0 .583.643.54a2.743 2.743 0 002.2-2.022c.407-1.378-.073-3.083-1.168-3.819-1.096-.736-2.82-.366-3.473.283-.719.72-1.242 2.111-.6 3.13a2.225 2.225 0 002.155 1.079 1.888 1.888 0 001.602-1.751 1.078 1.078 0 10-1.675.666.915.915 0 01-1.192-.46c-.333-.6-.493-2.11 1.332-2.53 1.824-.42 2.394 1.648 2.41 2.33.017.683-.133 2.351-2.247 2.548l.013.006zm.72-19.455a.781.781 0 00-.48-.703c-.3-.163-1.332-.552-1.752-1.451-.419-.9-.509-2.021.313-2.784.823-.762 2.291-.45 2.724-.06a1.381 1.381 0 01.48 1.439 1.066 1.066 0 01-1.276.642.966.966 0 10-1.568-.749 1.665 1.665 0 001.721 1.665c1.289 0 1.998-.912 1.998-2.098 0-1.185-1.092-2.124-2.663-2.124-1.572 0-2.904 1.408-2.874 2.8.03 1.392.93 3.173 3.37 3.413l.006.01zm32.623 28.379c-.28-.224-4.545-2.414-9.603-2.94l.247-.1c4.564-1.938 6.829-4.416 7.524-5.424 1.442.383 2.664-.197 3.164-.94.499-.742.719-2.753-.373-3.818a3.96 3.96 0 00-4.598-.54c-1.665.87-1.379 3.52-.913 3.996.466.476.733.406.883.316-.167-.15-.733-.63-.6-1.858a2.447 2.447 0 012.664-2.14c1.468.072 2.5.971 2.53 2.47a1.85 1.85 0 01-1.9 1.997c-.733-.03-1.542-.286-1.512-1.211a.689.689 0 01.466-.7.943.943 0 101.098-1.102 1.958 1.958 0 00-1.858.433 1.796 1.796 0 00.53 2.947c-1.685 1.908-5.364 4.441-8.8 5.167-2.52.55-5.126.58-7.658.09-.203-.606-1.08-1.505-2.514-1.415a1.974 1.974 0 00-1.918 1.542.999.999 0 101.635-.273c.882-.173 1.562.64 1.562 1.628a1.832 1.832 0 01-1.416 1.728c-.402.067-1.664.383-2.514-1.056-.849-1.438.293-2.996.696-3.639.403-.642 1.955-2.247 2.717-3.143a74.157 74.157 0 012.774-3.1 2.487 2.487 0 012.164-.45c1.079.27 2.188.87 3.623 2.038 1.435 1.17 2.963 2.185 3.563 1.619-.39-.21-1.529-.69-2.331-1.499-.756-.756-3.19-3.243-5.244-3.413a25.19 25.19 0 002.504-2.44c4.88 1.538 9.692.356 11.3-.406-.12-.18-.42-.21-.999-.06-4.451 1.172-7.888.37-9.626-.333.373-.44.776-.936 1.222-1.509 2.224-2.853 2.56-7.255 2.514-7.634-.046-.38-.113-.54-.36-.583 0 .852.044 3.819-3.123 7.904a25.44 25.44 0 01-1.242 1.499c-.842-2.88-.333-7.625-.086-9.287a5.179 5.179 0 001.665-.036c2.394-.42 3.233-2.874 3.1-4.209-.134-1.335-.713-3.233-3.024-3.503-.642-.076-.749.283-.762.403.313 0 1.738.073 2.47 1.062.733.99.853 2.95.06 3.97-.792 1.018-2.573 1.797-3.789 1.331-1.215-.466-2.09-1.621-1.781-3.053.31-1.432 1.512-1.665 2.068-1.588.556.076 1.571.45 1.648 1.332a.902.902 0 01-.443.948.964.964 0 00-1.516-.948.966.966 0 00.27 1.7h.044a.86.86 0 00.256.04h.087a2.29 2.29 0 001.711-.605c.643-.666.43-1.802.24-2.171-.373-.733-1.105-1.332-2.59-1.182-1.665.18-3.174 1.901-2.664 3.819a3.472 3.472 0 002.49 2.564c-.822 4.262-.426 8.464-.213 10.212-1.525 1.438-2.33 1.402-4.614 3.612-3.1 2.997-3.91 5.188-6.177 5.031-2.267-.156-2.783-6.399-2.996-9.322a7.66 7.66 0 01.043-1.376c.333-1.032 1.235-2.354 2.83-2.467 0-.246-.18-.473-.666-.383a5.66 5.66 0 00-1.768.843 19.06 19.06 0 011.721-4.032c.507-.846 1.489-1.875 2.331-3.264 1.029-.666 3.733-1.694 5.684-1.997a.632.632 0 00-.696-.36c-1.507.27-2.983.69-4.405 1.255a20.19 20.19 0 001.282-4.172c.066-.666-.024-.832-.313-.922-.044.999-.853 3.33-1.529 4.761-.675 1.432-2.11 2.56-3.37 4.852a27.778 27.778 0 00-2.446 6.825c-1.439-.562-3.1-3.616-3.413-4.328-.313-.713-1.189-3.21-2.83-5.188a18.274 18.274 0 00-3.93-3.526.999.999 0 00-.808 0c1.708.9 3.592 3.143 4.515 4.425.922 1.282 1.864 3.663 2.424 5.328.559 1.665 1.638 2.853 2.663 3.975 1.026 1.122 1.752 3.33 1.685 5.434-.067 2.105-1.888 3.82-3.123 3.886-1.235.066-2.244-1.595-4.269-3.483-.293-.273-.586-.53-.879-.779 1.056-4.565.283-8.277-.13-9.393 0 0-.36-.36-.066 1.438.266 1.635-.177 5.834-.596 7.302a31.783 31.783 0 00-3.4-2.36c-.876-.516-3.57-1.998-5.277-3.996-1.708-1.998-3.034-5.704-3.143-6.513-.203.114-.333.383-.223.943a22.404 22.404 0 002.2 5.21c1.123 1.775 3.796 4.446 4.852 5.098 1.055.653 3.662 2.537 4.85 3.75 1.19 1.211 2.471 3.369 2.694 4.514a12.652 12.652 0 00-5.343-.516c-1.09.2-2.118.657-2.997 1.332a10.818 10.818 0 01-7.019-5.29 6.328 6.328 0 011.888-4.625c-.293-.18-.563.023-.74.203-.176.18-1.404 1.664-1.74 3.286-1.366-2.947-1.615-5.977-1.719-7.125-.36.023-.402.293-.402.539.1 2.3.55 4.57 1.331 6.736a14.94 14.94 0 004.289 6.02c.899.696 2.514.852 1.978 1.618-.536.766-1.619.09-4.02 1.415a14.754 14.754 0 00-2.33 1.632l-.503-.64c.76-.875.703-2.23.46-3.206 1.511.36 2.574-.03 2.59-.6.017-.569-.972-.779-1.631-.569.45-.3 1.168-1.242.732-1.648-.436-.406-.999 0-1.362.403.03-.253.12-1.212-.762-1.169-.882.043-.643 1.871-.45 2.664-.998.959-3.31 1.998-3.759 2.094a4.232 4.232 0 00-1.798.93 1.642 1.642 0 00-.21 1.81 5.51 5.51 0 00-.282.75c-.06.303.083.303.18.223.15-.12.569-.553.569-.553.04.228.065.458.076.69 0 .239.18.196.223.09.077-.228.182-.444.313-.644.15-.18.93-.449 1.572-.509.573-.053 2.164.16 3.12-.403l.54.613a19.307 19.307 0 00-2.079 2.124c-.313.403-.426.852-.223.999a14.341 14.341 0 017.092-4.915c.953-.243 1.689-.262 2.614.247.107 2.997 2.231 3.929 3.33 3.839 1.099-.09 1.908-.563 2.224-1.482a2.632 2.632 0 00-.406-2.447l-.02.027a1.1 1.1 0 10-.513 1.907c-.027.54-.54.806-1.062.806-.606 0-1.332-.809-1.369-2.044-.036-1.235 1.122-2.47 2.664-2.47s2.854 1.458 3.413 2.693c.56 1.235.852 3.077.403 4.425-.45 1.349-2.517 5.973-3.862 9.613-1.346 3.639-2.514 8.58-2.964 10.105a24.142 24.142 0 01-1.438 3.862c-.36.63-.317 1.213.27 1.572.585.36 4.967 1.938 10.151-.133.9-.36 1-1.212.317-1.482s-2.068-.313-3.19-1.302c-1.122-.989-1.438-2.693-1.302-4.445.137-1.751 1.482-6.659 2.83-10.375 1.349-3.716 3.33-6.326 4.895-6.38 1.565-.053 2.56 2.664 3.053 3.863.493 1.199 2.021 8.49 2.2 12.486.18 3.996-1.75 5.21-2.92 5.434-1.168.223-2.603-.136-2.71-1.691-.07-1.036.69-1.665 1.272-1.14-.403.644-.103 1.543.666 1.53a1.21 1.21 0 001.169-1.303 1.79 1.79 0 00-2.021-1.708c-1.781.21-2.697 1.885-2.664 3.28.034 1.395.583 4.302 4.715 4.302 2.92 0 3.413-.972 6.153-1.152 2.74-.18 5.837 1.125 7.545 1.125.999 0 1.202-.253 1.362-.626.333-.762-.373-1.442-.913-1.934a8.887 8.887 0 01-2.11-3.503c-.583-1.752-1.572-7.109-2.245-9.443-.672-2.334-3.05-7.721-3.37-8.534-.319-.812-.998-1.848.26-2.697a8.949 8.949 0 003.064-3.726c.516-1.332 1.235-1.332 2.29-1.481.813-.12 2.092.083 4.539-.623 2.7-.037 8.87.999 12.41 3.123a1.085 1.085 0 00-.54-.999v.054zM33.956 6.056a.54.54 0 100-1.08.54.54 0 000 1.08zm-11.138 6.286a.54.54 0 100-1.08.54.54 0 000 1.08zm23.537 3.19a.54.54 0 10-1.08 0 .54.54 0 001.08 0zM42.446 33.05a.54.54 0 101.08 0 .54.54 0 00-1.08 0zm19.808-4.582a.54.54 0 10-1.078 0 .54.54 0 001.078 0zm8.757 4.222a.54.54 0 100-1.08.54.54 0 000 1.08zM9.117 31.162a.54.54 0 100 1.078.54.54 0 000-1.078zm15.36 3.995a.54.54 0 101.078 0 .54.54 0 00-1.078 0zm-5.481-11.633a.539.539 0 100 1.078.539.539 0 000-1.078zm9.849 4.495a.54.54 0 100-1.079.54.54 0 000 1.079zM19.539 38.29a.54.54 0 10-1.08 0 .54.54 0 001.08 0zm-7.455 5.21a.54.54 0 10-1.08 0 .54.54 0 001.08 0zm54.302-8.174a.54.54 0 10-1.078 0 .54.54 0 001.078 0zM5.328 90.323a2.88 2.88 0 01-1.998.706c-1.91 0-3.226-1.279-3.226-3.227 0-1.794 1.135-3.226 3.2-3.226a2.84 2.84 0 011.9.636l-.492.812a2.364 2.364 0 00-1.412-.42c-1.162 0-2.037.84-2.037 2.198A2.078 2.078 0 003.423 90a2.434 2.434 0 001.482-.5l.423.823zm2.158-5.627a45.306 45.306 0 011.804-.043c1.492 0 2.055.665 2.055 1.544a1.468 1.468 0 01-.893 1.422v.017a1.395 1.395 0 011.099 1.455c0 1.285-.999 1.875-2.33 1.875a31.54 31.54 0 01-1.742-.044l.007-6.226zm1.098.999v1.581h.743c.51 0 .929-.26.929-.832 0-.51-.393-.776-1-.776-.235.01-.475.02-.672.037v-.01zm0 2.537v1.665c.24.028.481.043.723.043.742 0 1.142-.313 1.142-.902 0-.526-.403-.796-1.089-.796l-.776-.01zm5.48-3.563h3.62v1.03h-2.52v1.554h2.25v1.029h-2.25V89.9h2.607v1.029h-3.706v-6.26zm5.428 0h5.154v1.03H22.62v5.227h-1.1v-5.221h-2.027v-1.036zm10.422 1.03h-1.822l-.126 1.178c-.366 3.636-1.179 4.225-2.41 4.045l.026-1.088c.483.063 1.115-.144 1.392-3.913l.09-1.252h3.939v6.263h-1.09v-5.234zm4.994 1.115c.231-.03.463-.044.696-.044 1.545 0 2.288.796 2.288 2.018 0 1.332-.93 2.154-2.528 2.154-.589 0-1.188-.016-1.555-.016v-6.247h1.1v2.135zm0 1.028V89.9c.197 0 .376.027.59.027.802 0 1.232-.367 1.232-1.1 0-.665-.447-1.018-1.216-1.018a5.88 5.88 0 00-.61.04l.004-.007zm3.796-3.17h1.089v6.26H38.7l.003-6.26zm3.889 6.254v-6.247h1.099v4.449l3.28-4.449h.965v6.253h-1.112V86.49l-3.28 4.439-.952-.003zm2.018-7.772c.073.333.313.52.759.52s.666-.134.716-.52h1.025c-.026.77-.759 1.279-1.741 1.279-1.072 0-1.725-.52-1.785-1.279h1.026zm9.086 1.519h1.119l2.134 2.92 2.038-2.92h1.035v6.26h-1.088V86.41l-1.975 2.776h-.16l-1.997-2.75v4.495h-1.1l-.006-6.26zm9.11 6.26v-6.254h1.099v4.449l3.28-4.449h.965v6.253h-1.099V86.49l-3.28 4.439-.965.003zm8.144 0v-6.254c.333 0 1.332-.017 1.778-.017 1.841 0 2.42 1 2.42 1.998 0 1-.795 2.028-2.287 2.028-.186 0-.546 0-.812-.027v2.261l-1.099.01zm1.099-5.228v1.92c.258.028.517.043.776.044.666 0 1.162-.313 1.162-.999 0-.686-.403-.972-1.152-.972a10.45 10.45 0 00-.78.007h-.006z" fill="#A4D55D"/></svg>