<svg width="223" height="80" fill="none" xmlns="http://www.w3.org/2000/svg"><path d="M62.95 18.592a2.37 2.37 0 011.158-2.79l-6.992-.21c.806.396 1.462 1.698 1.132 2.843-.283.999-5.94 18.363-7.471 23.078-5.398-5.694-10.302-12.44-12.02-15.543l6.266-7.628c1.212-1.449 3.423-2.907 4.565-3.47l-6.616-.37c.806.397 1.175 1.755.563 2.511L32.957 30.18V15.86a2.722 2.722 0 011.331-2.15l-6.536-.713c.74.473 1.442 1.491 1.442 1.948V44.06c0 .456-.7 1.478-1.442 1.948l6.536-.686a2.725 2.725 0 01-1.331-2.151V33.035l2.946-3.585c6.66 10.085 12.916 15.802 20.78 18.569l.666-.453a51.292 51.292 0 01-4.914-4.352l2.547-8.194 9.779-.333 2.374 6.756c.263.929-.54 1.998-1.282 2.457l6.423-.316a5.436 5.436 0 01-1.332-2.151s-7.721-21.91-7.994-22.841zm-7.366 14.464L59.62 20.07l4.458 12.693-8.494.293zm47.867 45.898l-6.563.124a2.287 2.287 0 00.966-2.664l-6.756-18.54-6.356 18.613a2.497 2.497 0 001.112 2.854l-4.911.263c.719-.64.925-1.142 1.332-2.151 0 0 7.401-21.143 7.738-22.222a2.603 2.603 0 00-1-2.747l5.994-.247c-.826.397-1.402 1.825-.999 3.054l7.838 21.506c.38.779.819 1.761 1.605 2.157zm63.595-60.502v23.64a2.73 2.73 0 001.332 2.151l-6.536-.333c.743-.473 1.442-1.492 1.442-1.951v-14.61l-9.789.213V41.37a2.718 2.718 0 001.332 2.15l-6.536-.203c.742-.472 1.441-1.491 1.441-1.947V18.588c0-.456-.699-1.478-1.441-1.95l6.536-.2a2.72 2.72 0 00-1.332 2.15v7.026l9.789-.213v-6.776c0-.456-.699-1.479-1.442-1.948l6.536-.376a2.723 2.723 0 00-1.332 2.147v.004zm27.909-2.8v28.681a2.718 2.718 0 001.332 2.15l-6.54-.628c.74-.473 1.442-1.492 1.442-1.952V16.068c0-.457-.699-1.479-1.442-1.952l6.536-.612a2.732 2.732 0 00-1.328 2.148zm28.049 34.198l-6.536-.972c.739-.473 1.441-1.492 1.441-1.951v-27.71a45.64 45.64 0 01-1.032 1.925c-3.995 7.022-9.476 16.981-10.258 18.676a36.994 36.994 0 00-2.331 7.438l-.333-.06v.114l-2.281-.28V15.035c0-.456-.699-1.478-1.442-1.95l6.536-.747a2.725 2.725 0 00-1.331 2.151v23.614c1.664-3.246 6.516-12.01 9.855-17.857 1.475-2.583 2.464-4.93 2.604-6.143v-1.079c0-.456-.699-1.478-1.442-1.95l6.536-1a2.73 2.73 0 00-1.332 2.151v35.477a2.735 2.735 0 001.346 2.148zm-111.352-7.185a12.739 12.739 0 006.929-4.712c3.442-4.638 4.112-9.529.829-14.817-3.157-5.054-10.462-7.471-16.315-5.09-4.662 1.9-7.02 5.45-7.975 9.22-.905 4.524.213 8.676 2.93 11.68 3.277 3.632 8.867 5.074 13.602 3.719zM98.333 25.35c.58-3.084 2.351-5.404 6.077-6.09 3.166-.583 5.807.246 8.167 2.197 4.592 3.8 6.014 8.048 5.627 12.387-.429 1.997-.999 3.3-2.024 4.455-2.81 3.123-7.482 3.616-11.447 1.098-2.997-1.907-4.575-4.305-5.72-7.218a11.963 11.963 0 01-.676-6.813l-.004-.016zM87.196 42.448a19.94 19.94 0 01-7.502 1.865 11.283 11.283 0 01-3.16-.293c-1.148-.233-2.137-.706-2.82-1.618a.3.3 0 01.053-.403c.963-.896 1.535-1.332 2.521-2.284a5.38 5.38 0 003.283 2.763c.856.217 3.353.686 5.404-.998 2.837-2.331 2.847-7.659-.16-9.886-1.511-1.119-3.716-1.925-5.677-1.429-.732.224-1.385.55-1.761 1.282 0-1.428 0-2.787-.027-4.175a2.77 2.77 0 001.732 1.229 12.836 12.836 0 003.106-.333 4.066 4.066 0 003.343-3.513 6.802 6.802 0 00-.306-3.526c-.85-2.101-2.664-3.586-4.995-3.52a5.5 5.5 0 00-3.16 1.149c-.875.952-1.401 1.126-1.864 2.504 0 .02-.057.027-.117.056-.133-1.73-.096-2.607-.313-4.328.455.082.917.12 1.379.113a13.16 13.16 0 001.901-.393 10.438 10.438 0 017.325.333 8.29 8.29 0 012.737 1.885c2.46 2.547 2.38 5.893-.263 8.107a12.83 12.83 0 01-2.627 1.595c.786.36 1.385.603 1.958.896 3.386 1.745 5.027 4.795 4.215 8.134-.543 2.258-2.12 3.776-4.205 4.788zm44.876-9.22c-2.247 0-7.268-.562-7.268-7.408v-6.66c0-.455-.7-1.477-1.442-1.95l6.536-.203a2.72 2.72 0 00-1.332 2.15v6.294c0 1.122.486 5.72 5.154 5.72 1.918 0 3.21-.383 4.072-.84v-11.38c0-.456-.699-1.478-1.441-1.951l6.536-.203a2.72 2.72 0 00-1.332 2.15v22.046a2.718 2.718 0 001.332 2.151l-6.536-.166c.739-.473 1.441-1.492 1.441-1.948v-8.963c-1.571.782-3.416 1.162-5.717 1.162h-.003zm45.819-6.612v-9.51a2.718 2.718 0 011.332-2.15l-6.536.472c.742.473 1.441 1.492 1.441 1.948v25.206c0 .456-.699 1.478-1.441 1.95l6.536.447c-.044-.02-.08-.05-.12-.073 1.625.16 3.842.37 4.924.433 1.825.106 5.607-1.975 5.301-7.409-.343-6.156-8.311-10.099-11.434-11.314h-.003zm7.365 13.422c-.296 1.665-1.968 3.476-4.598 3.266-.74-.06-1.945-.18-2.751-.263a1.843 1.843 0 01-.02-.21V28.314c1.475.82 3.893 2.33 5.295 3.793 2.883 2.983 2.357 6.352 2.077 7.934l-.003-.003zm-61.931 34.019l3.123 3.23c-3.476 3.792-9.898 2.457-11.304 2.07a21.642 21.642 0 00-4.608-.742c-1.49-.023-2.98.047-4.461.21.541-.89.836-1.909.855-2.95V53.942c0-.456-.699-1.478-1.441-1.947l14.676.02a2.637 2.637 0 001.722-.527l2.354 4.389-.526.333s-1.861-2.331-5.757-2.331h-7.179v7.092h5.681a4.29 4.29 0 003.755-2.07v5.79c-.632-.703-1.997-1.969-3.755-1.969h-5.687V76.82c.821-.004 1.64.06 2.45.193.773.107 4.705.526 6.846.07s2.77-1.901 3.263-3.026h-.007zm23.044-4.995s1.609 1.925 1.199 3.773c-.22.999-.972 1.754-1.625 2.25a7.766 7.766 0 01-6.433 4.838c-2.806.333-5.826-.353-8.6-3.686-2.773-3.332-4.968-9.136-3.096-15.955 1.914-6.992 8.164-8.374 10.681-8.444a10.658 10.658 0 014.878 1.089c.806.42 1.721.806 2.597.666l.316.492-4.102 3.756c-.28-1.089-1.192-3.995-4.598-3.995-3.406 0-5.264 1.791-6.057 5.6-1.182 5.707-.063 11.281 2.265 14.55 1.997 2.81 3.862 3.687 6.073 3.793 1.831.087 3.423-.666 4.615-2.634-.447-.712-1.049-1.957-.78-3.173.407-1.854 2.677-2.923 2.677-2.923l-.01.003zm62.407-58.934s-.633-3.623 1.222-6.16S215.499.94 215.499.94s.632 3.623-1.222 6.16c-1.855 2.537-5.494 3.033-5.494 3.033l-.007-.006zM42.379 46.87s-.965 3.473-3.685 4.975c-1.788.998-3.886.879-5.118.689-2.3 1.188-7.172 2.664-12.123 2.664-6.09 0-11.494-1.665-16.095-7.785-4.346-5.784-7.432-17.484-3.663-29.148C5.88 5.353 15.05 2.95 19.528 2.95c6.523 0 6.85 2.93 11.75 3.216l.25.56-5.52 5.234c-.31-2.044-1.888-6.992-6.72-6.992-4.83 0-9.286 4.152-11.49 11.134-2.46 7.798-1.778 18.493 2.088 26.28 2.976 5.994 7.202 8.691 11.074 9.813 2.41.696 7.145.77 11.827-.632.446-1.11 1.491-3.157 3.42-4.22 2.71-1.507 6.172-.472 6.172-.472z" fill="#D2B887"/></svg>