<svg width="17" height="17" fill="none" xmlns="http://www.w3.org/2000/svg"><path d="M13.934 10.027c-.348-.361-.768-.555-1.212-.555-.442 0-.865.19-1.227.552l-1.134 1.128c-.093-.05-.186-.097-.276-.143-.129-.065-.251-.126-.355-.19-1.062-.673-2.027-1.55-2.952-2.686-.448-.566-.75-1.043-.969-1.526.295-.269.567-.548.833-.817l.3-.304c.754-.752.754-1.727 0-2.479l-.978-.978c-.112-.11-.226-.225-.334-.34a16.916 16.916 0 00-.674-.666C4.608.679 4.192.496 3.754.496c-.438 0-.86.183-1.22.527l-.007.007-1.22 1.229A2.619 2.619 0 00.53 3.924C.443 4.97.752 5.944.99 6.582c.58 1.565 1.449 3.016 2.744 4.57a16.877 16.877 0 005.62 4.395c.825.39 1.927.852 3.157.931.075.004.154.007.226.007.828 0 1.524-.297 2.07-.888.003-.007.01-.01.014-.018.186-.226.402-.43.628-.648.154-.147.312-.301.466-.462.355-.37.542-.799.542-1.24 0-.444-.19-.87-.553-1.228l-1.97-1.974zm1.284 3.772c-.004 0-.004.004 0 0-.14.15-.283.287-.438.437-.233.222-.47.455-.692.716-.362.387-.789.57-1.349.57-.053 0-.11 0-.165-.004-1.065-.068-2.055-.483-2.797-.838a15.93 15.93 0 01-5.295-4.14C3.26 9.067 2.442 7.706 1.9 6.245c-.334-.892-.456-1.587-.402-2.242a1.64 1.64 0 01.495-1.064l1.223-1.221c.176-.165.362-.255.545-.255.226 0 .41.137.524.251l.01.01c.22.205.428.416.646.642l.341.347.98.978c.38.38.38.73 0 1.11-.105.104-.205.208-.31.309-.3.308-.587.594-.9.874-.007.007-.014.01-.017.018-.309.308-.251.608-.187.813l.01.032c.256.616.614 1.196 1.16 1.887l.003.004c.99 1.218 2.034 2.167 3.185 2.894.147.093.298.168.441.24.13.065.252.125.356.19.014.007.028.018.043.025.122.06.236.09.355.09.297 0 .484-.187.545-.248l1.227-1.225c.122-.121.315-.268.541-.268.223 0 .406.14.517.261a.238.238 0 00.007.007l1.976 1.974c.37.365.37.741.004 1.121z" fill="#fff"/></svg>