<svg width="27" height="53" fill="none" xmlns="http://www.w3.org/2000/svg"><path d="M15.085 43.325a41.039 41.039 0 005.184-5.719c3.799-5.077 5.807-10.363 5.807-15.286 0-4.922-2.008-10.208-5.807-15.286C17.443 3.255 14.637.919 14.52.822L13.525 0l-.993.822c-.118.097-2.924 2.433-5.751 6.212C2.982 12.112.975 17.398.975 22.32c0 4.923 2.007 10.209 5.806 15.286a41.05 41.05 0 005.185 5.719v6.556H4.377V53h18.296v-3.119h-7.588v-6.556zM4.093 22.32c0-8.399 6.829-15.71 9.434-18.194 2.606 2.48 9.43 9.774 9.43 18.194 0 7.032-4.786 13.3-7.872 16.613V27.74h-3.12v11.2c-3.085-3.305-7.871-9.566-7.871-16.62z" fill="#fff"/></svg>