<svg width="23" height="17" fill="none" xmlns="http://www.w3.org/2000/svg"><path d="M22.758 7.61L9.763.284C8.761-.281 7.39.024 6.728.955L4.211 4.504a2.033 2.033 0 00-.378 1.182c0 .734.4 1.418 1.045 1.785l2.74 1.56-.494.65a2.041 2.041 0 00-.416 1.23c0 .452.169.878.44 1.23l-.73 1.082H2.875v-1.421a.471.471 0 00-.48-.468H.48a.471.471 0 00-.479.468v4.726c0 .262.214.473.48.473h1.916a.475.475 0 00.479-.473v-.471h3.543a2.88 2.88 0 002.392-1.263l.786-1.162c.15.033.303.062.46.062a2.2 2.2 0 001.872-1.046l.527-.866 4.077 2.321a.482.482 0 00.669-.198l.354-.7c.059.004.115.016.174.016 1.85 0 3.354-1.484 3.354-3.308 0-.2-.03-.407-.074-.618l1.726-.851a.472.472 0 00.023-.833zM1.917 16.055H.958v-3.778h.959v3.778zm6.096-1.785a1.92 1.92 0 01-1.595.841H2.875v-.944h3.543a.96.96 0 00.798-.42l.663-.982.823.487-.69 1.018zm3.093-2.106c-.335.549-1.123.745-1.68.414L8.21 11.86a1.105 1.105 0 01-.543-.945c0-.237.08-.472.223-.662l.565-.741 3.17 1.802-.519.85zm5.465.871L5.357 6.66a1.115 1.115 0 01-.565-.965c0-.23.07-.451.204-.64L6.2 3.362l11.858 6.742-1.486 2.932zm1.47-.788l1.003-1.98 1.065-.524c.005.058.016.118.016.174 0 1.197-.911 2.177-2.084 2.33zm.663-2.867L6.75 2.585l.763-1.073a1.366 1.366 0 011.774-.392L21.506 8l-2.802 1.38z" fill="#9FC460"/></svg>