<svg width="223" height="80" viewBox="0 0 223 80" fill="none" xmlns="http://www.w3.org/2000/svg">
<path d="M62.9496 18.5916C62.7881 18.0643 62.8154 17.4972 63.0269 16.988C63.2384 16.4787 63.6208 16.0591 64.1083 15.8013L57.1161 15.5916C57.9219 15.9878 58.5778 17.2897 58.2482 18.4351C57.9652 19.434 52.3082 36.798 50.7766 41.5128C45.3793 35.8191 40.4748 29.0733 38.7567 25.97L45.0231 18.3418C46.235 16.8934 48.4459 15.4351 49.5879 14.8724L42.972 14.5028C43.7778 14.899 44.1474 16.2575 43.5347 17.0133L32.9566 30.1787V15.8613C32.988 15.4217 33.1256 14.9964 33.3576 14.6218C33.5896 14.2471 33.909 13.9344 34.2884 13.7103L27.7524 12.9978C28.4916 13.4706 29.1941 14.4894 29.1941 14.9456V44.0599C29.1941 44.5161 28.4949 45.5383 27.7524 46.0078L34.2884 45.3219C33.909 45.0978 33.5896 44.785 33.3576 44.4104C33.1256 44.0358 32.988 43.6104 32.9566 43.1709V33.0355L35.9033 29.4495C42.5625 39.535 48.8188 45.2519 56.6833 48.0189L57.3492 47.566C55.6198 46.2218 53.9783 44.7683 52.4347 43.2142L54.9819 35.02L64.7609 34.687L67.1349 41.4428C67.398 42.3718 66.5955 43.4406 65.853 43.9001L72.2758 43.5838C71.6689 42.9815 71.2126 42.2446 70.944 41.4328C70.944 41.4328 63.2226 19.5239 62.9496 18.5916ZM55.5845 33.0555L59.62 20.0699L64.0784 32.7625L55.5845 33.0555ZM103.451 78.9545L96.8882 79.0777C97.3251 78.8068 97.6579 78.3966 97.8331 77.9133C98.0082 77.4301 98.0156 76.9019 97.8538 76.414L91.098 57.8746L84.7419 76.4872C84.5841 77.0188 84.6078 77.5878 84.8091 78.1045C85.0105 78.6211 85.3781 79.0561 85.8539 79.3407L80.9428 79.6038C81.662 78.9645 81.8684 78.4617 82.2746 77.4528C82.2746 77.4528 89.6763 56.3096 90.0126 55.2308C90.1401 54.7256 90.1131 54.1937 89.935 53.704C89.7569 53.2143 89.436 52.7892 89.0137 52.4839L95.007 52.2375C94.1813 52.6337 93.6053 54.0622 94.0081 55.2908L101.846 76.7969C102.226 77.576 102.665 78.5583 103.451 78.9545ZM167.046 18.4517V42.0921C167.078 42.5316 167.215 42.957 167.447 43.3316C167.679 43.7062 167.999 44.019 168.378 44.2431L161.842 43.9101C162.585 43.4373 163.284 42.4184 163.284 41.9589V27.3485L153.495 27.5616V41.3696C153.526 41.8091 153.664 42.2344 153.896 42.6091C154.128 42.9837 154.447 43.2965 154.827 43.5205L148.291 43.3174C149.033 42.8446 149.732 41.8258 149.732 41.3696V18.5882C149.732 18.1321 149.033 17.1099 148.291 16.6371L154.827 16.4373C154.447 16.6613 154.128 16.9741 153.896 17.3487C153.664 17.7234 153.526 18.1487 153.495 18.5882V25.6138L163.284 25.4007V18.6248C163.284 18.1687 162.585 17.1465 161.842 16.677L168.378 16.3008C167.999 16.5245 167.68 16.8367 167.448 17.2108C167.216 17.5848 167.078 18.0094 167.046 18.4484V18.4517ZM194.955 15.6515V44.333C194.986 44.7725 195.124 45.1978 195.356 45.5724C195.588 45.9471 195.907 46.2599 196.287 46.4839L189.747 45.8546C190.487 45.3818 191.189 44.3629 191.189 43.9034V16.0677C191.189 15.6115 190.49 14.5893 189.747 14.1165L196.283 13.5039C195.905 13.728 195.587 14.0404 195.355 14.4144C195.124 14.7884 194.987 15.2129 194.955 15.6515ZM223.004 49.8502L216.468 48.8779C217.207 48.4051 217.909 47.3862 217.909 46.9267V19.2175C217.516 19.9933 217.143 20.6759 216.877 21.1421C212.882 28.1643 207.401 38.1232 206.619 39.818C205.582 42.2086 204.801 44.7019 204.288 47.2564L203.955 47.1965V47.3097L201.674 47.03V15.0355C201.674 14.5794 200.975 13.5572 200.232 13.0843L206.768 12.3385C206.389 12.5626 206.07 12.8753 205.838 13.25C205.606 13.6246 205.468 14.0499 205.437 14.4894V38.1032C207.101 34.8568 211.953 26.0932 215.292 20.2464C216.767 17.6626 217.756 15.3152 217.896 14.1032V13.0244C217.896 12.5683 217.197 11.546 216.454 11.0732L222.99 10.0743C222.611 10.2984 222.291 10.6112 222.059 10.9858C221.827 11.3604 221.69 11.7858 221.658 12.2253V47.7025C221.692 48.1427 221.832 48.5682 222.066 48.9423C222.3 49.3165 222.622 49.628 223.004 49.8502ZM111.652 42.6648C114.427 41.9208 116.868 40.2604 118.581 37.9534C122.023 33.3152 122.693 28.424 119.41 23.1365C116.253 18.0821 108.948 15.6648 103.095 18.0455C98.4332 19.9467 96.0758 23.4961 95.1202 27.2653C94.2146 31.7902 95.3333 35.9423 98.0503 38.9456C101.327 42.5782 106.917 44.02 111.652 42.6648ZM98.3333 25.3507C98.9126 22.2675 100.684 19.9467 104.41 19.2608C107.576 18.6781 110.217 19.5072 112.577 21.4584C117.169 25.2575 118.591 29.5061 118.204 33.8446C117.775 35.8424 117.205 37.1443 116.18 38.2997C113.37 41.4229 108.698 41.9156 104.733 39.3984C101.736 37.4906 100.158 35.0932 99.0125 32.1798C98.1284 30.0233 97.8935 27.6555 98.3366 25.3674L98.3333 25.3507ZM87.1958 42.4484C84.8408 43.5533 82.2924 44.1867 79.6942 44.313C78.6324 44.3647 77.5686 44.266 76.5344 44.02C75.3857 43.7869 74.3968 43.3141 73.7142 42.4018C73.6709 42.3402 73.6523 42.2646 73.6621 42.1899C73.672 42.1153 73.7096 42.0471 73.7675 41.9989C74.7297 41.1032 75.3024 40.667 76.288 39.7148C76.6163 40.376 77.0773 40.9626 77.6421 41.438C78.2069 41.9135 78.8634 42.2676 79.571 42.4784C80.4267 42.6948 82.9239 43.1643 84.9749 41.4795C87.8117 39.1487 87.8217 33.8213 84.8151 31.5938C83.3035 30.475 81.0993 29.6693 79.1381 30.1654C78.4056 30.3885 77.753 30.7148 77.3768 31.4473C77.3768 30.0189 77.3768 28.6604 77.3501 27.2719C77.5438 27.5805 77.7964 27.8479 78.0935 28.0587C78.3906 28.2695 78.7263 28.4197 79.0815 28.5006C80.1267 28.5165 81.17 28.4047 82.1881 28.1676C83.0487 28.0188 83.8385 27.5968 84.4406 26.9642C85.0427 26.3315 85.425 25.5218 85.531 24.6548C85.7418 23.473 85.6361 22.2565 85.2246 21.1287C84.3756 19.0277 82.561 17.5427 80.2302 17.6093C79.0829 17.653 77.978 18.0547 77.0705 18.758C76.1948 19.7103 75.6687 19.8835 75.2059 21.2619C75.2059 21.2819 75.1493 21.2886 75.0893 21.3185C74.9562 19.5871 74.9928 18.7114 74.7764 16.99C75.2311 17.0723 75.6927 17.1102 76.1548 17.1032C76.7974 17.0192 77.4328 16.8879 78.056 16.7103C80.4576 15.9318 83.06 16.0501 85.3811 17.0433C86.4113 17.4803 87.3423 18.1214 88.1181 18.9279C90.5786 21.475 90.4987 24.8213 87.855 27.0355C87.0464 27.6705 86.1644 28.2059 85.228 28.6304C86.0138 28.99 86.6131 29.2331 87.1858 29.5261C90.572 31.2708 92.2135 34.3208 91.4011 37.6604C90.8583 39.9179 89.2801 41.4362 87.1958 42.4484ZM132.072 33.2286C129.825 33.2286 124.804 32.6659 124.804 25.8202V19.1609C124.804 18.7048 124.104 17.6826 123.362 17.2098L129.898 17.0066C129.518 17.2307 129.199 17.5435 128.967 17.9181C128.735 18.2928 128.598 18.7181 128.566 19.1576V25.4506C128.566 26.5727 129.052 31.1709 133.72 31.1709C135.638 31.1709 136.93 30.788 137.792 30.3319V18.9512C137.792 18.495 137.093 17.4728 136.351 17L142.887 16.7969C142.507 17.0209 142.188 17.3337 141.956 17.7083C141.724 18.083 141.586 18.5083 141.555 18.9478V40.9933C141.586 41.4329 141.724 41.8582 141.956 42.2328C142.188 42.6075 142.507 42.9202 142.887 43.1443L136.351 42.9778C137.09 42.505 137.792 41.4861 137.792 41.03V32.0666C136.221 32.8491 134.376 33.2286 132.075 33.2286H132.072ZM177.891 26.616V17.1065C177.922 16.667 178.06 16.2417 178.292 15.867C178.524 15.4924 178.843 15.1796 179.223 14.9556L172.687 15.4284C173.429 15.9012 174.128 16.9201 174.128 17.3762V42.5816C174.128 43.0377 173.429 44.0599 172.687 44.5327L179.223 44.9789C179.179 44.9589 179.143 44.929 179.103 44.9057C180.728 45.0655 182.945 45.2753 184.027 45.3385C185.852 45.4451 189.634 43.364 189.328 37.9301C188.985 31.7736 181.017 27.8313 177.894 26.616H177.891ZM185.256 40.0377C184.96 41.7026 183.288 43.5139 180.658 43.3041C179.918 43.2442 178.713 43.1243 177.907 43.0411C177.896 42.9716 177.89 42.9016 177.887 42.8313V28.3141C179.362 29.1332 181.78 30.6448 183.182 32.1066C186.065 35.0899 185.539 38.4595 185.259 40.0411L185.256 40.0377ZM123.325 74.0566L126.448 77.2864C122.972 81.0788 116.55 79.7436 115.144 79.3574C113.64 78.9446 112.095 78.6957 110.536 78.6149C109.046 78.5918 107.556 78.6619 106.075 78.8247C106.616 77.9344 106.911 76.9164 106.93 75.8746V53.9423C106.93 53.4861 106.231 52.4639 105.489 51.9945L120.165 52.0144C120.783 52.0464 121.393 51.8602 121.887 51.4883L124.241 55.8768L123.715 56.2098C123.715 56.2098 121.854 53.879 117.958 53.879H110.779C110.779 53.9023 110.779 53.9256 110.779 53.9489V60.9712H116.46C117.212 60.986 117.956 60.8024 118.615 60.4389C119.274 60.0753 119.826 59.5446 120.215 58.9001V64.6903C119.583 63.9878 118.218 62.7225 116.46 62.7225H110.773V76.8202C111.594 76.8157 112.413 76.8803 113.223 77.0133C113.996 77.1199 117.928 77.5394 120.069 77.0832C122.21 76.6271 122.839 75.182 123.332 74.0566H123.325ZM146.369 69.0622C146.369 69.0622 147.978 70.9867 147.568 72.8346C147.348 73.8335 146.596 74.5893 145.943 75.0855C145.415 76.4027 144.537 77.5501 143.403 78.4031C142.269 79.256 140.922 79.7818 139.51 79.9234C136.704 80.2564 133.684 79.5705 130.91 76.2375C128.137 72.9046 125.942 67.101 127.814 60.2819C129.728 53.2897 135.978 51.9079 138.495 51.8379C140.184 51.809 141.856 52.1822 143.373 52.9267C144.179 53.3463 145.094 53.7325 145.97 53.5927L146.286 54.0855L142.184 57.8413C141.904 56.7525 140.992 53.8457 137.586 53.8457C134.18 53.8457 132.322 55.6371 131.529 59.4462C130.347 65.1532 131.466 70.727 133.794 73.9967C135.791 76.8069 137.656 77.6826 139.867 77.7891C141.698 77.8757 143.29 77.1232 144.482 75.1554C144.035 74.4428 143.433 73.1976 143.702 71.9822C144.109 70.1276 146.379 69.0588 146.379 69.0588L146.369 69.0622ZM208.776 10.1276C208.776 10.1276 208.143 6.50499 209.998 3.96781C211.853 1.43063 215.499 0.941162 215.499 0.941162C215.499 0.941162 216.131 4.5638 214.277 7.10099C212.422 9.63817 208.783 10.1343 208.783 10.1343L208.776 10.1276ZM42.3794 46.8701C42.3794 46.8701 41.4138 50.3429 38.6935 51.8446C36.9055 52.8435 34.8078 52.7236 33.5759 52.5339C31.2751 53.7225 26.4039 55.1976 21.4528 55.1976C15.363 55.1976 9.95903 53.5327 5.35752 47.4129C1.01239 41.6293 -2.07415 29.929 1.69496 18.2653C5.88027 5.35294 15.05 2.94894 19.5283 2.94894C26.051 2.94894 26.3773 5.87901 31.2785 6.16536L31.5282 6.72474L26.0077 11.9589C25.698 9.91454 24.1198 4.9667 19.2886 4.9667C14.4573 4.9667 10.0023 9.11875 7.7981 16.101C5.33753 23.899 6.0201 34.5938 9.88577 42.3818C12.8624 48.3751 17.0877 51.0721 20.96 52.1942C23.3707 52.8901 28.1054 52.9634 32.7868 51.5616C33.2329 50.4528 34.2784 48.4051 36.2063 47.3429C38.9166 45.8346 42.3794 46.8701 42.3794 46.8701Z" fill="#D2B887"/>
</svg>
