<svg width="17" height="17" viewBox="0 0 17 17" fill="none" xmlns="http://www.w3.org/2000/svg">
<path d="M13.9339 10.0274C13.586 9.66563 13.1663 9.47222 12.7215 9.47222C12.2803 9.47222 11.857 9.66205 11.4948 10.0238L10.3613 11.1521C10.268 11.1019 10.1748 11.0554 10.0851 11.0088C9.95596 10.9443 9.834 10.8834 9.72998 10.819C8.66824 10.1456 7.70334 9.26806 6.7779 8.13264C6.32953 7.56672 6.02823 7.09035 5.80942 6.60681C6.10355 6.33818 6.37616 6.0588 6.6416 5.79017C6.74204 5.68988 6.84247 5.58601 6.9429 5.48572C7.69617 4.73355 7.69617 3.75932 6.9429 3.00715L5.96366 2.02933C5.85247 1.91829 5.73768 1.80368 5.63007 1.68906C5.41486 1.46699 5.18888 1.23776 4.95573 1.02286C4.60779 0.679007 4.1917 0.496338 3.75409 0.496338C3.31648 0.496338 2.89322 0.679007 2.53452 1.02286C2.53094 1.02644 2.53094 1.02644 2.52735 1.03002L1.30778 2.25856C0.848648 2.71703 0.5868 3.27578 0.529408 3.92408C0.443321 4.96995 0.7518 5.94419 0.98854 6.58174C1.56963 8.14697 2.43767 9.59758 3.73257 11.1521C5.30366 13.0253 7.19399 14.5046 9.35335 15.5469C10.1783 15.9373 11.2795 16.3993 12.5099 16.4781C12.5852 16.4817 12.6641 16.4853 12.7359 16.4853C13.5644 16.4853 14.2603 16.188 14.8055 15.597C14.8091 15.5899 14.8163 15.5863 14.8199 15.5791C15.0064 15.3535 15.2216 15.1493 15.4476 14.9308C15.6018 14.784 15.7597 14.6299 15.9139 14.4688C16.269 14.0998 16.4555 13.67 16.4555 13.2295C16.4555 12.7853 16.2654 12.3591 15.9031 12.0009L13.9339 10.0274ZM15.218 13.799C15.2145 13.799 15.2145 13.8026 15.218 13.799C15.0781 13.9494 14.9347 14.0855 14.7804 14.236C14.5473 14.458 14.3105 14.6908 14.0881 14.9523C13.7259 15.3391 13.299 15.5218 12.7394 15.5218C12.6856 15.5218 12.6282 15.5218 12.5744 15.5182C11.5091 15.4502 10.5191 15.0347 9.77661 14.6801C7.74639 13.6987 5.96366 12.3054 4.48225 10.5396C3.25909 9.06748 2.44126 7.70641 1.89963 6.24506C1.56604 5.3532 1.44408 4.65834 1.49789 4.00288C1.53376 3.58381 1.69517 3.23638 1.99289 2.9391L3.21605 1.71772C3.39181 1.55296 3.57833 1.46341 3.76127 1.46341C3.98724 1.46341 4.17018 1.59952 4.28496 1.71413C4.28855 1.71772 4.29214 1.7213 4.29572 1.72488C4.51453 1.92904 4.72257 2.14036 4.94138 2.36601C5.05257 2.48063 5.16736 2.59525 5.28214 2.71344L6.26138 3.69126C6.6416 4.07093 6.6416 4.42194 6.26138 4.80161C6.15736 4.90548 6.05692 5.00935 5.9529 5.10964C5.6516 5.41767 5.36464 5.70421 5.05257 5.98359C5.0454 5.99075 5.03823 5.99433 5.03464 6.0015C4.72616 6.30953 4.78355 6.61039 4.84812 6.81455C4.8517 6.8253 4.85529 6.83604 4.85888 6.84679C5.11355 7.46285 5.47225 8.0431 6.01747 8.73438L6.02105 8.73796C7.01106 9.95575 8.05487 10.9049 9.20628 11.632C9.35335 11.7251 9.504 11.8004 9.64748 11.872C9.77661 11.9365 9.89857 11.9974 10.0026 12.0618C10.0169 12.069 10.0313 12.0797 10.0456 12.0869C10.1676 12.1478 10.2824 12.1764 10.4007 12.1764C10.6985 12.1764 10.885 11.9902 10.946 11.9293L12.1727 10.7043C12.2947 10.5826 12.4884 10.4357 12.7143 10.4357C12.9367 10.4357 13.1197 10.5754 13.2309 10.6972C13.2344 10.7008 13.2344 10.7008 13.238 10.7043L15.2145 12.6779C15.5839 13.0432 15.5839 13.4193 15.218 13.799Z" fill="white"/>
</svg>
