<svg width="27" height="53" viewBox="0 0 27 53" fill="none" xmlns="http://www.w3.org/2000/svg">
<path d="M15.0847 43.3249C16.0624 42.4426 18.1598 40.4265 20.2694 37.6065C24.0679 32.529 26.0755 27.2432 26.0755 22.3202C26.0755 17.3975 24.0679 12.1117 20.2694 7.03381C17.4425 3.25549 14.6367 0.919106 14.5186 0.821655L13.5251 0L12.5316 0.821655C12.4135 0.919106 9.60765 3.25549 6.78078 7.03381C2.98225 12.1117 0.974609 17.3975 0.974609 22.3202C0.974609 27.2432 2.98225 32.529 6.78078 37.6065C8.89072 40.4265 10.9881 42.4426 11.9659 43.3249V49.8812H4.37728V53H22.6733V49.8812H15.0847V43.3249ZM4.09342 22.3202C4.09342 13.9212 10.9218 6.60923 13.5267 4.12607C16.1332 6.60519 22.9571 13.8998 22.9571 22.3202C22.9571 29.3519 18.1711 35.6207 15.0847 38.9332V27.739H11.9659V38.9397C8.879 35.634 4.09342 29.3726 4.09342 22.3202Z" fill="white"/>
</svg>
